<svg id="Layer_1" xmlns="http://www.w3.org/2000/svg" viewBox="0 0 106.6 106.6"  width="24" height="24">
<path class="st10" d="M92.7,16.3C84.9,6.9,71.4,4.2,60.5,10c-4.9,2.6-9.6,2.6-14.4,0C35.4,4.3,22,6.8,14.1,16
	c-8,9.2-8.6,22.9-0.9,32.4c4.8,5.9,6.9,12.2,5.8,18.8c-1,12,2.4,21.5,10.5,29.3c2.6,2.5,5.5,4.1,9.2,2.4c3.6-1.6,4.6-4.6,4.6-8.4
	c0-7.2,0.9-14.4,3.7-21.1c1.3-3,2.4-7,6.2-6.8c3.5,0.1,4.7,3.9,5.9,6.8c2.9,7,3.8,14.4,3.8,21.9c0,3.5,1.3,6.2,4.6,7.7
	c3.3,1.5,6.2,0.4,8.7-1.9c8.3-7.7,12.2-17.3,11.1-28.6c-0.8-7.5,1.1-13.9,5.8-19.7C100.9,39,100.6,25.7,92.7,16.3z M65.9,38.5
	c0.5,3.2-2.3,1.3-3.6,1.9c-3.6-0.6-5.7,1.5-7.5,4.1c-0.4,0.6-0.8,2.1-2.1,1.1c-1.4-1-0.3-1.8,0.4-2.6c5.5-5.5,11-11.1,16.6-16.6
	c0.5-0.5,1-1.7,2-0.6c0.9,1,0.6,1.8-0.5,2.3C66.6,30.1,65.2,33.6,65.9,38.5z M65.4,24.4c-4.8,4.1-9.2,8.8-13.5,13.4
	c-2.2,2.4-4.3,3.6-7.2,2.3C53.8,31,63,21.9,72.2,12.8C69.3,16.2,69.2,21.1,65.4,24.4z M61.4,15.4c-6.3,6.3-13.2,13.2-19.9,19.9
	c-1.5-3.8-1.5-3.8,1.4-6.6c1.5-1.5,2.9-2.9,4.4-4.4C51.5,20.2,55.1,15,61.4,15.4z M44,15.3c1.3-1.3,2.1,0.3,3,0.8
	c0.9,0.5,0.7,1.1,0.1,1.7c-3.4,3.3-6.7,6.7-10,10c-0.2,0.2-0.6,0.4-0.9,0.6c-1.1-0.5-2.4-0.9-1.5-2.6C37,21.7,40.7,18.6,44,15.3z
	 M34.6,12.3c1.4-1.5,3.3-0.5,5.2,0.3c-1.3,1.2-1.8,3.4-3.7,2.9C35.3,15.3,33.6,13.4,34.6,12.3z M82.7,69.2c1,9.3-2.3,17.2-9,23.8
	c-1.3,1.2-2.6,2.4-4.5,1.6c-1.8-0.8-1.6-2.5-1.7-4.1c-0.1-8.1-1.1-16.1-4.4-23.6c-1.9-4.4-4.2-8.9-10-8.9c-5.7,0-8.1,4.5-10,8.9
	C40,74,39,81.8,38.7,89.6c-0.1,1.9,0.5,4.1-2,5c-2.3,0.8-3.6-1-4.9-2.4c-5.6-5.8-8.4-12.8-8.5-20.5c0.2-3.3,0.7-6.2,0.6-9.1
	c-0.2-6.3-2.7-11.7-6.7-16.7c-9-11.3-4.7-27.5,8.5-32.9c2-0.8,3.7-1.4,4.2,1.6c0.2,0.9,0.8,1.8,1.4,2.5c1.6,1.8,1.3,3.3,0,5.2
	c-3.4,5-2.9,7,2.1,10.1c2,1.2,2.6,2.4,2.4,4.7c-0.5,6.3,0.9,7.8,7,7.6c2.2-0.1,3.6,0.5,4.9,2.3c3.8,5.2,6.8,5.2,10.6,0.1
	c1.3-1.7,2.6-2.5,4.9-2.4c6.3,0.2,7.7-1.3,7-7.9c-0.2-2,0.4-3.1,2.1-4.2c5.5-3.4,6-5.3,2.4-10.6c-1.5-2.3-0.9-3.9,0.6-5.5
	c1.1-1.3,0.8-3.9,2.4-4.2c2.3-0.4,4.4,1.2,6.3,2.4c10.4,6.6,13.1,20.7,5.5,30.4C84.1,52.5,81.7,60.1,82.7,69.2z"/>
</svg>
