<?xml version="1.0" encoding="utf-8"?>
<!-- Generator: Adobe Illustrator 23.0.3, SVG Export Plug-In . SVG Version: 6.00 Build 0)  -->
<svg version="1.1" id="Layer_1" xmlns="http://www.w3.org/2000/svg" xmlns:xlink="http://www.w3.org/1999/xlink" x="0px" y="0px"
	 viewBox="0 0 106.6 106.6" style="enable-background:new 0 0 106.6 106.6;" xml:space="preserve">
<style type="text/css">
	.st0{fill:url(#SVGID_1_);}
	.st1{fill:url(#SVGID_2_);}
	.st2{fill:url(#SVGID_3_);}
	.st3{fill:url(#SVGID_4_);}
	.st4{fill:url(#SVGID_5_);}
	.st5{fill:url(#SVGID_6_);}
	.st6{fill:url(#SVGID_7_);}
	.st7{fill:url(#SVGID_8_);}
	.st8{fill:url(#SVGID_9_);}
	.st9{fill:url(#SVGID_10_);}
	.st10{fill:#494949;}
	.st11{fill:#505050;}
	.st12{fill:#515151;}
	.st13{fill:#4A4A4A;}
	.st14{fill:#4D4D4D;}
	.st15{fill:#535353;}
	.st16{fill:#525252;}
	.st17{fill:#4F4F4F;}
	.st18{fill:#4C4C4C;}
	.st19{fill:#4E4E4E;}
	.st20{fill:#4B4B4B;}
	.st21{fill:#FFFFFF;}
	.st22{fill:url(#SVGID_11_);}
	.st23{fill:url(#SVGID_12_);}
	.st24{fill:url(#SVGID_13_);}
	.st25{fill:url(#SVGID_14_);}
	.st26{fill:url(#SVGID_15_);}
	.st27{fill:url(#SVGID_16_);}
	.st28{fill:#079EE3;}
	.st29{fill:#D63777;}
	.st30{fill:#003263;}
	.st31{fill:#FEFEFE;}
	.st32{fill:#F9F9F9;}
	.st33{fill:#FAFAFA;}
	.st34{fill:#F8F8F8;}
	.st35{fill:#EDEDED;}
	.st36{fill:#FCFCFC;}
	.st37{fill:#FDFDFD;}
	.st38{fill:#FBFBFB;}
	.st39{fill:#CFCFCF;}
	.st40{fill:#545454;}
	.st41{fill:#9D9D9D;}
	.st42{fill:#E7E7E7;}
	.st43{fill:#555555;}
	.st44{fill:#F5F5F5;}
	.st45{fill:#F4F4F4;}
	.st46{fill:#EBEBEB;}
	.st47{fill:#DFDFDF;}
	.st48{fill:#DADADA;}
	.st49{fill:#E3E3E3;}
	.st50{fill:#F1F1F1;}
	.st51{fill:#EEEEEE;}
	.st52{fill:#ECECEC;}
	.st53{fill:#1B83B8;}
	.st54{fill:#F7AD28;}
	.st55{fill:#91BF3B;}
	.st56{fill:#91BE3F;}
	.st57{fill:#033661;}
</style>
<g>
	<path class="st10" d="M93.3,16.9C85.8,7.4,72.7,4.1,61.7,9.6c-5.8,2.9-11.1,3-16.8-0.1c-4-2.2-8.6-2.9-13.1-2.4
		c-10.3,1.1-17.9,6.4-21.8,16C6,32.6,7.6,41.5,14.1,49.5c4.3,5.3,6.1,11.3,4.9,18.1c-0.2,1.3-0.2,2.7-0.3,3.9
		c0.2,10,3.8,18.4,11,25.2c2.6,2.4,5.4,3.8,8.9,2.3c3.5-1.5,4.7-4.3,4.7-7.9c0.1-6,0.6-11.9,2.4-17.7c0.8-2.8,1.9-5.6,3.5-8
		c2.6-3.8,4.9-3.9,7.7-0.2c1.3,1.8,2.2,3.8,2.9,5.9c2.3,6.6,3.1,13.5,3.1,20.5c0,3.5,1.5,6.1,4.9,7.5c3.2,1.3,6,0.3,8.4-2
		c8.3-7.7,12.4-17.3,11.2-28.6c-0.8-7.6,1-13.9,5.7-19.7C100.6,39.4,100.6,26.3,93.3,16.9z M82.7,68.6c1.1,9.6-2.1,17.8-9,24.5
		c-1.2,1.1-2.3,2.3-4.2,1.6c-1.9-0.7-1.7-2.4-1.8-4c-0.2-7.4-1.1-14.6-3.6-21.6c-0.8-2.2-1.8-4.3-3.1-6.2
		c-4.6-6.9-11.4-6.8-15.8,0.3c-4.8,7.7-5.8,16.5-6.5,25.3c-0.1,1-0.1,2-0.1,2.9c0,1.4-0.2,2.7-1.7,3.3c-1.4,0.6-2.6,0-3.6-1
		c-7.1-6.6-10.7-14.7-9.7-24.2c1-9-0.8-16.7-6.6-23.9c-5.4-6.6-6-14.4-2.2-22c3.9-7.8,10.5-11.6,19.2-11.8c2.5-0.1,5.1,0.1,7.2,1.3
		c4.5,2.7,9.1,3.9,14.4,3.6c2-0.1,3.6-0.1,5.4-1.2c9.1-6,20.5-4.5,27.7,3.3c7.1,7.7,7.6,19,0.7,27.5C83.9,52.7,81.8,60.1,82.7,68.6z
		"/>
	<path class="st10" d="M64.2,23c-3.6,0.2-7.3,0-11,0c-4.4,0-8.8-0.1-13.2,0c-6.3,0.1-10.5,3.3-12.4,9.4c-1.2,3.9-1.7,8.1-0.3,11.9
		c2.4,6.4,1.8,12.6,0.6,19.1c-1.6,8.8-1.5,17.5,3.5,25.5c0.9,1.3,1.8,3.2,4,2.5c1.9-0.7,1.6-2.5,1.7-4c0.4-7.6,1.6-15.1,4.9-22
		c2.3-4.8,5.2-9.3,11.1-9.3c6-0.1,8.9,4.4,11.2,9.2c3.4,7.1,4.5,14.6,5,22.4c0.1,1.6-0.1,3.4,1.9,3.9c1.9,0.5,2.9-1.1,3.7-2.4
		c4.4-6.4,5.1-13.7,4.2-21.1c-1.1-8.6-1.9-16.8,0.7-25.6C82.6,33.5,77.6,22.2,64.2,23z M51.7,27.8C45.5,34,39.1,40.3,32.7,46.7
		c-1.1-1.7-0.6-3.4,1.3-5.1c3.9-3.5,7.6-7.3,11.1-11.1C47.2,28.2,49.3,27.1,51.7,27.8z M40.1,28c-2.8,2.8-5.9,5.8-8.5,8.5
		C32,30.7,34.9,27.7,40.1,28z M32.1,72.4c-1.8-6,3.7-7.7,6.2-10.9C36.4,65.3,36.3,70,32.1,72.4z M33.6,58.5c-0.5-3.1,0.7-5.4,3-7.6
		C43.8,44,50.8,37,57.6,29.9c2.1-2.2,4.2-2.4,6.6-2C54,38.1,43.9,48.2,33.6,58.5z M47.9,51.6c7.2-7.1,14.3-14.3,21.5-21.4
		c0.9-0.9,1.6-1.7,3-0.4c1.3,1.2,0.8,2-0.2,3c-5.9,5.8-11.8,11.7-17.6,17.6C52.7,52.2,50.1,51.1,47.9,51.6z M69.1,59.4
		c-0.5,0.4-1,2.1-2.1,0.6c-0.7-1-2-1.9-0.4-3.3c2-1.9,3.8-3.9,6-6.3C73.9,55,71.6,57.3,69.1,59.4z M71.1,68.9c-2.8-3.4,0-5,2.2-7
		C74.5,66.3,74.5,66.3,71.1,68.9z M73.4,80c0.2-2.3-2.7-5.1,1.1-7.2C74.7,75.5,74.7,77.9,73.4,80z M74,42.8
		c-3.3,3.1-6.5,6.2-9.5,9.6c-1.9,2.2-3.4,2.2-4.8,0.4c5.3-5.3,10.6-10.6,15.9-16C76.1,38.9,76,40.9,74,42.8z"/>
</g>
</svg>
