<?xml version="1.0" encoding="UTF-8" standalone="no"?> <svg xmlns="http://www.w3.org/2000/svg" viewBox="0 0 512 512"><title>Tooth_loose</title><g id="Tooth_loose"><path d="M492,293.45H411a41.5,41.5,0,0,0-19.56,4.93l44.28-119.59c14.32-38.68,10-79.92-11-105.07-14-16.76-33.64-23.88-55.38-20.06l-34.73,6.12a126,126,0,0,1-73.91-8.9L228.44,36.69c-23.4-10.28-47.58-5.54-66.33,13a5,5,0,0,0,7,7.11c15.91-15.74,35.55-19.64,55.28-11L256.7,60a135.91,135.91,0,0,0,79.68,9.59l34.73-6.12c23.14-4.07,37.77,6.79,46,16.62,8.8,10.56,14.45,24.88,16.31,41.42,2,17.41-.48,36-7.06,53.76L378.79,303.72l-4.28,11.55v0l0,.07c-.21.39-.42.78-.61,1.18s-.27.55-.39.83-.37.8-.55,1.21-.26.61-.37.92c-.21.51-.41,1-.58,1.55-.05.12-.1.25-.14.38-.11.33-.22.67-.32,1s-.25.78-.35,1.17-.29,1.06-.42,1.59l-.16.67-21.69,58.58c-4.22,11.4-15.94,19-27.26,17.6l-.6,5,.49-5a7.85,7.85,0,0,1-6.7-8.17A431.79,431.79,0,0,0,312.13,327c-.39-3.38-.83-6.71-1.3-10-.89-6.14-1.9-12.07-3-17.66-7.27-36-18.26-55.09-32.67-56.83S245.52,256.79,229.9,290c-4,8.59-8,18.15-11.63,28.18-1.19,3.23-2.35,6.52-3.47,9.83a424.11,424.11,0,0,0-14.15,52.12,7.84,7.84,0,0,1-8.44,6.33l-.57,5,.46-5c-11.32-1.37-20.91-11.5-22.3-23.57L165,321l-1.21-10.48L144.23,141.34c-2.15-18.66-.16-37.15,5.76-53.49a5,5,0,1,0-9.4-3.41c-6.45,17.79-8.62,37.86-6.29,58l19.14,165.9c-11.38-2.5-21-5.05-28.41-7.23a40.92,40.92,0,0,0-24-7.7H20a5,5,0,0,0-5,5V475.64a5,5,0,0,0,5,5H492a5,5,0,0,0,5-5V298.45A5,5,0,0,0,492,293.45ZM320.28,412l.15,0a34.84,34.84,0,0,0,3.94.23,36.38,36.38,0,0,0,29.28-15.56l-7.45,31.16c-2.83,11.82-13.56,20.73-25,20.73h-.11a7.83,7.83,0,0,1-7.62-7.3,202.18,202.18,0,0,0-6.41-38.3A17.69,17.69,0,0,0,320.28,412ZM239,294.26c12.81-27.25,25.88-42.86,35-41.77S292,271.86,298,301.37c1.07,5.29,2,10.89,2.88,16.69a470.68,470.68,0,0,1-72.24.89C231.92,310.18,235.4,301.84,239,294.26Zm-84.3,24.65L159.86,364c1.94,16.81,15,30.41,31.09,32.35h.11a17.88,17.88,0,0,0,19.4-14.31,414.89,414.89,0,0,1,14.62-53.25l3.68.24a476,476,0,0,0,73.43-1,420.11,420.11,0,0,1,2.64,65.39,17.74,17.74,0,0,0,.05,2.31,104.28,104.28,0,0,0-10.16-22.12c-10.21-16.36-23.6-25-38.72-25s-28.51,8.64-38.72,25-16.63,39.61-18.78,67.62a7.82,7.82,0,0,1-7.6,7.29h-.13c-11.41,0-22.14-8.91-25-20.73L141.26,325.21c-.12-.5-.25-1-.39-1.48-.05-.22-.12-.44-.19-.66s-.2-.68-.31-1-.12-.38-.19-.57c-.12-.36-.24-.71-.38-1.07-.26-.7-.54-1.39-.84-2.08-.21-.5-.44-1-.68-1.48a.31.31,0,0,0-.05-.1c-.17-.37-.36-.75-.56-1.12l-.33-.63-.09-.16C142.61,316.21,148.42,317.58,154.65,318.91ZM487,470.64H25V303.45h76a31.08,31.08,0,0,1,18.81,6.27l.08.06.39.3a3.9,3.9,0,0,1,.4.31c.51.4,1,.83,1.48,1.27.3.27.6.56.89.85s.7.7,1,1.06.56.6.81.91.58.68.85,1,.58.75.85,1.14.49.69.71,1a30.4,30.4,0,0,1,2.51,4.67c.18.39.34.79.5,1.2s.33.9.49,1.36c.28.86.53,1.72.74,2.6l24.54,102.61c3.94,16.46,18.53,28.41,34.69,28.41h.15A17.9,17.9,0,0,0,208.48,442c3.87-50.65,22.53-83.38,47.52-83.38s43.65,32.73,47.52,83.37a17.9,17.9,0,0,0,17.58,16.54h.13c16.16,0,30.75-11.95,34.69-28.41l24.22-101.28,3.44-9.29a31.57,31.57,0,0,1,5.31-7c.63-.62,1.29-1.22,2-1.79.34-.29.7-.57,1.06-.85h0A31.05,31.05,0,0,1,411,303.45h76Z"/><path d="M385.5,199.17a5,5,0,1,0,9.38,3.47l12.69-34.27a99.16,99.16,0,0,0,6.19-42,5,5,0,0,0-10,.81,89.05,89.05,0,0,1-5.59,37.74Z"/><path d="M380.69,82.65a5,5,0,0,0,0,10c2.41,0,8.82,0,14.9,8.73a5,5,0,0,0,8.21-5.71C397.78,87,390,82.65,380.69,82.65Z"/></g></svg>