<?xml version="1.0" encoding="UTF-8" standalone="no"?> <svg xmlns="http://www.w3.org/2000/svg" viewBox="0 0 512 512"><g id="Tooth_Filling"><path d="M392.8418,220.2269a106.4791,106.4791,0,0,0-35.18-45.6367,7.9987,7.9987,0,0,0-9.5659.0049l-30.94,15.1523a52.3474,52.3474,0,0,0-19.5483,16.5391c-11.0811,15.5312-25.8579,24.085-41.6084,24.085s-30.5259-8.5528-41.6064-24.084a52.3553,52.3553,0,0,0-19.5484-16.54l-30.9414-15.1533a8.0014,8.0014,0,0,0-9.5659-.0039,106.4791,106.4791,0,0,0-35.18,45.6367,105.3406,105.3406,0,0,0-5.6,59.628l32.2505,165.4824a38.7182,38.7182,0,0,0,75.0454,3.8613l19.8564-65.2705a15.9808,15.9808,0,0,1,30.5782,0l19.8564,65.2705a38.7179,38.7179,0,0,0,75.0449-3.8613l32.251-165.4815A105.343,105.343,0,0,0,392.8418,220.2269Zm-10.1045,56.5674L350.4858,442.2767a22.7178,22.7178,0,0,1-44.0327,2.2657l-19.8564-65.27a31.9809,31.9809,0,0,0-61.1934,0l-19.8564,65.27a22.7184,22.7184,0,0,1-44.0337-2.2657L129.2627,276.7933a89.2286,89.2286,0,0,1,30.7305-86.2988l27.8144,13.6221A36.3009,36.3009,0,0,1,201.3687,215.58C215.33,235.1488,235.2422,246.3715,256,246.3715s40.6714-11.2237,54.6328-30.792a36.3026,36.3026,0,0,1,13.5606-11.4629l27.8134-13.6211A89.227,89.227,0,0,1,382.7373,276.7943Z"/><path d="M152.3745,142.3158a7.9964,7.9964,0,0,0,3.3545,3.0908l32.0791,15.71A36.3123,36.3123,0,0,1,201.3687,172.58C215.33,192.1488,235.2422,203.3715,256,203.3715s40.6714-11.2237,54.6328-30.792a36.3026,36.3026,0,0,1,13.5606-11.4629l32.0776-15.71a7.9964,7.9964,0,0,0,3.3545-3.0908l.2251-.3779a7.9994,7.9994,0,0,0-2.084-10.502c-1.6763-1.2529-3.1084-2.2715-4.5083-3.208-18.3584-12.2754-41.33-15.1045-63.1045-7.791-.1626.0439-.3252.0947-.4868.1494a77.9832,77.9832,0,0,0-10.7583,4.627,50.4151,50.4151,0,0,1-45.8169.0009,77.6348,77.6348,0,0,0-8.7051-3.89c-.04-.0156-.081-.03-.1221-.0449l-1.6611-.5918c-21.9951-7.6377-45.271-4.8887-63.8618,7.54-1.4023.9385-2.835,1.957-4.5083,3.208a7.9994,7.9994,0,0,0-2.084,10.502Zm64.92-6.5342,1.5376.5479a61.5339,61.5339,0,0,1,6.8492,3.0654,66.415,66.415,0,0,0,60.6376,0,61.7712,61.7712,0,0,1,8.1163-3.5264c.144-.041.2885-.0859.4316-.1347a56.5256,56.5256,0,0,1,41.7349,1.49l-19.4449,9.5234a52.3474,52.3474,0,0,0-19.5483,16.5391c-11.0811,15.5312-25.8579,24.085-41.6084,24.085s-30.5259-8.5528-41.6064-24.084a52.3553,52.3553,0,0,0-19.5484-16.54L175.397,137.223A56.4444,56.4444,0,0,1,217.2944,135.7816Z"/><path d="M249.9785,105.19a8.0011,8.0011,0,0,0,12.043,0l21.6509-24.75a8,8,0,0,0-12.043-10.5351L264,78.6263V43.351a8,8,0,0,0-16,0V78.6263l-7.6294-8.7216A8,8,0,0,0,228.3276,80.44Z"/></g></svg>