<?xml version="1.0" encoding="UTF-8" standalone="no"?> <svg xmlns="http://www.w3.org/2000/svg" viewBox="0 0 512 512"><title>Dental_plaque_cleaning</title><g id="Dental_plaque_cleaning"><path d="M403.2,303.08V204.84h5.56a5,5,0,0,0,4.93-4.16L419.1,169h0l0-.16a6.32,6.32,0,0,0,.06-.74s0-.07,0-.1V20a5,5,0,0,0-5-5h-32a5,5,0,0,0-5,5V168a.43.43,0,0,1,0,.05,4.27,4.27,0,0,0,.06.79l5.44,31.89a5,5,0,0,0,4.93,4.16h5.56v103a5,5,0,0,0,5,5,36,36,0,1,1-23,63.68,5,5,0,0,0-6.4,7.69,46,46,0,1,0,34.41-81.1Zm-16-278h22V163h-22ZM388.12,173h20.15l-3.73,21.89H391.86Z"/><circle cx="75.42" cy="318.96" r="9"/><circle cx="111.92" cy="336.96" r="9"/><circle cx="86.85" cy="364.97" r="9"/><circle cx="272.35" cy="318.96" r="9"/><circle cx="238.91" cy="358.46" r="9"/><circle cx="247.91" cy="412.37" r="9"/><path d="M492,429.93H368.75c-18.17,0-36.45-21.08-51.14-38C306.46,379.07,298,369.33,290,368.56l19.21-80.32v0l14-58.66a129.4,129.4,0,0,0,1.47-54.74,5,5,0,0,0-9.81,1.94,119.38,119.38,0,0,1-1.39,50.48l-13.25,55.41A140.84,140.84,0,0,1,276.85,284l-1.67-.05c-6.1-.2-13-.42-19.25,2.78-9,4.61-12.66,14-15.89,22.22a89.69,89.69,0,0,1-3.88,9c-3.53,6.71-10.24,12.13-17.34,17.87-4.95,4-10,8.08-14.09,12.79-10-24.23-21.23-36.5-33.3-36.5h0c-8.6,0-16.74,6.22-24.35,18.55-.87-1.38-1.79-2.73-2.68-4-3-4.44-5.93-8.63-6.15-13,0-.68,0-1.45,0-2.27a19,19,0,0,0-.83-7.5c-3.87-10.55-16.48-9.31-24.82-8.49l-1.25.13c-7.93.75-15.65-1.29-21.18-5.6a55.07,55.07,0,0,1-5.45-5.14c-1.67-1.72-3.39-3.49-5.33-5.13a43.72,43.72,0,0,0-20.62-9.14A36,36,0,0,0,40,271.92L29.36,227.24C25,208.81,24.75,190.06,28.78,173c3.82-16.2,11.14-29.75,21.15-39.18,9.31-8.77,25.13-17.81,47.62-11l33.75,10.23a135.87,135.87,0,0,0,80.25,0l33.75-10.23c19.7-6,38.13-.47,51.89,15.46a5,5,0,1,0,7.57-6.53c-16.26-18.83-39-25.58-62.36-18.5L208.65,123.5a126,126,0,0,1-74.45,0l-33.75-10.23c-21.12-6.39-41.5-1.67-57.38,13.3-23.83,22.45-33,62.88-23.44,103l12.21,51v.05L44.46,333.4a75.34,75.34,0,0,0-22.3-16.26A5,5,0,0,0,15,321.65V492a5,5,0,0,0,5,5H492a5,5,0,0,0,5-5v-57A5,5,0,0,0,492,429.93ZM209,359.64c3.48-5.84,9.65-10.82,16.14-16.07,7.58-6.12,15.42-12.45,19.91-21a96.36,96.36,0,0,0,4.34-10c2.83-7.24,5.51-14.08,11.14-17,3.95-2,9-1.86,14.37-1.69l1.72.05a149.81,149.81,0,0,0,21.17-.93l-36.13,151.1a27.82,27.82,0,0,1-12.8,17.28c-.58.34-1.17.66-1.77.95l-.13.08c-.51.24-1,.45-1.53.66l-.47.2c-.42.16-.85.29-1.28.42-.25.09-.51.18-.76.25s-.72.18-1.08.26-.66.17-1,.23-.67.1-1,.15-.71.11-1.07.15-.91.05-1.36.06c-.24,0-.48,0-.71,0h-.11a7.85,7.85,0,0,1-7.63-7.31c0-.27,0-.55-.07-.82-.1-1.35-.22-2.7-.34-4.06,0-.41-.07-.81-.11-1.23-.15-1.51-.3-3-.47-4.57l-.15-1.43c-.17-1.48-.34-3-.53-4.45-.07-.57-.13-1.13-.21-1.7-.18-1.41-.36-2.82-.56-4.24-.09-.68-.19-1.36-.28-2-.19-1.31-.38-2.62-.58-3.93l-.39-2.51c-.13-.83-.27-1.67-.41-2.5s-.22-1.41-.34-2.12-.23-1.3-.34-2c-.07-.37-.13-.74-.2-1.11q-.49-2.82-1-5.62s0-.08,0-.12a397,397,0,0,0-11.08-44.91c-.26-.84-.53-1.67-.79-2.49-.13-.38-.25-.78-.37-1.16-.23-.67-.45-1.33-.68-2,0-.17-.11-.33-.16-.5-.22-.64-.44-1.28-.67-1.91C209.09,360,209,359.82,209,359.64Zm-136-72.42a63.89,63.89,0,0,1,4.61,4.47A65.12,65.12,0,0,0,84,297.75c7.53,5.86,17.84,8.66,28.28,7.66l1.28-.12c5.59-.55,13.25-1.31,14.46,2a11.47,11.47,0,0,1,.22,3.69c0,1-.07,2,0,3.13.37,7.2,4.36,13,7.89,18.16,1,1.41,1.89,2.75,2.73,4.1a50.57,50.57,0,0,1,2.59,4.69q-2.47,5.19-4.87,11.29l-.52,1.38c0,.09-.08.19-.11.28-.31.81-.62,1.63-.93,2.47-.17.47-.34.94-.52,1.42l-.39,1.1a324.24,324.24,0,0,0-9.61,32.85c-.05.2-.09.4-.14.59-.36,1.51-.71,3-1.06,4.54-.1.46-.21.93-.32,1.4-.31,1.41-.61,2.81-.91,4.21-.26,1.22-.51,2.43-.76,3.65l0,.17a434,434,0,0,0-6.87,45.44l-.12,1.48c-.09,1-.18,2-.26,3,0,.41-.07.82-.1,1.23a8.1,8.1,0,0,1-1.11,3.49,7.71,7.71,0,0,1-6.52,3.81h-.1c-8.92,0-17.41-5.47-22-13.5a27.21,27.21,0,0,1-2.92-7.23L62.91,367.53h0L42.4,281.78C51.32,277.51,65.5,280.92,72.94,287.22ZM487,487H25V330.14a65,65,0,0,1,28.16,39.61L71.5,446.47a37.93,37.93,0,0,0,2.83,7.84c6,12.27,18.4,20.57,31.86,20.57h.16l.66,0c.35,0,.7,0,1-.06l.12,0a17.92,17.92,0,0,0,15.73-16.41l.15-1.77c.09-1.15.18-2.3.29-3.46l.09-.92c.88-9.26,2.17-18.91,3.79-28.57,2-11.72,4.44-23.45,7.26-34.49l.29-1.1c.14-.57.3-1.13.45-1.7,4.47-16.71,9.49-30.79,14.13-40.65l.27-.56q.3-.63.6-1.23c6.88-14,14-21.82,20.2-21.82,8.55,0,18.79,14.85,27.8,40,.09.25.18.5.26.74.18.49.35,1,.52,1.47s.33,1,.5,1.46c.08.25.17.5.25.74.2.61.41,1.23.61,1.85q.55,1.71,1.11,3.48c.23.72.45,1.44.67,2.17.18.57.35,1.15.52,1.73.41,1.36.81,2.74,1.21,4.14,0,.16.09.31.13.47,3,10.49,5.62,21.84,7.83,33.37.08.41.16.81.23,1.22.3,1.55.58,3.11.86,4.66.12.7.25,1.4.37,2.1.2,1.2.41,2.39.6,3.59.16.94.31,1.88.46,2.81l.36,2.36q.3,1.94.57,3.87c.09.6.17,1.2.26,1.8.2,1.44.38,2.87.57,4.3.07.54.13,1.08.2,1.62q.27,2.2.51,4.38c.06.49.11,1,.16,1.47q.24,2.22.45,4.41l.12,1.35c.12,1.27.23,2.53.33,3.79,0,.3.05.59.07.89a18.15,18.15,0,0,0,1.74,6.44l0,0,.1.18a17.69,17.69,0,0,0,15.61,9.88h.24a33.53,33.53,0,0,0,4.49-.31C255,472.66,266.94,462.14,271,448c.14-.5.28-1,.4-1.51l14.72-61.55c1.36-5.62,2.81-6.39,2.81-6.39s1.73-.27,6.88,4.44c4.14,3.79,9.07,9.48,14.29,15.5,16,18.47,36,41.46,58.7,41.46H487Z"/></g></svg>